<?xml version="1.0" standalone="no"?>
<svg xmlns="http://www.w3.org/2000/svg" viewBox="0 0 95 70" width="95" height="70"><g fill="#6a8bff" color="#6a8bff" transform="translate(25.292 0) scale(0.44) "><svg width="100.0" height="100.0" x="0.0" y="0.0" viewBox="0 0 100 100"><path fill="currentColor" d="M63.842,23.584C74.868,4.575,98.245,1.458,98.245,1.458s6.06,25.8-4.341,41.172L63.842,23.584z"></path><path fill="currentColor" d="M36.159,23.584C25.132,4.575,1.755,1.458,1.755,1.458s-6.06,25.8,4.341,41.172L36.159,23.584z"></path><path fill="currentColor" d="M3.213,37.184c0,0,1.914,4.25,0.774,9.583c-1.14,5.333,4.837-3.335,4.837-3.335L8.638,39.21L3.213,37.184z"></path><path fill="currentColor" d="M96.939,37.184c0,0-1.914,4.25-0.774,9.583c1.141,5.333-4.838-3.335-4.838-3.335l0.187-4.221L96.939,37.184z  "></path><path fill="currentColor" d="M71.739,57.523c4.928-7.192-1.646-12.319-1.646-12.319C66.074,52.936,71.739,57.523,71.739,57.523z"></path><path fill="currentColor" d="M29.299,45.199c0,0-6.42,5.316-1.285,12.361C28.014,57.56,33.542,52.809,29.299,45.199z"></path><path fill="currentColor" d="M96.939,54.218c0,7.935-2.592,15.868-7.773,21.923c0,0-13.021,16.947-39.09,23.859  c-26.069-6.912-39.09-23.859-39.09-23.859c-5.182-6.055-7.773-13.988-7.773-21.923s2.591-15.869,7.773-21.923  c0,0,14.5-16.567,39.09-16.567c24.59,0,39.09,16.567,39.09,16.567C94.348,38.349,96.939,46.283,96.939,54.218z M19.852,46.667  c3.222,17.05,18.136,9.559,18.136,9.559C34.768,39.174,19.852,46.667,19.852,46.667z M61.749,56.226c0,0,14.915,7.491,18.137-9.559  C79.886,46.667,64.97,39.174,61.749,56.226z M48.551,77.493c0.463,0.818,0.547,2.733,0.547,2.733  c-0.043,0.319-0.031,0.751-0.114,1.104c-0.088,0.359-0.186,0.719-0.301,1.07c-0.221,0.707-0.517,1.384-0.849,2.029  c-0.334,0.646-0.734,1.248-1.21,1.768c-0.478,0.517-1.021,0.963-1.635,1.293c-0.306,0.168-0.634,0.29-0.969,0.403  c-0.34,0.093-0.688,0.171-1.047,0.215c-0.358,0.043-0.727,0.068-1.097,0.052c-0.371-0.005-0.742-0.042-1.117-0.103  c-0.378-0.03-0.746-0.143-1.124-0.211l-1.117-0.314c-0.73-0.244-1.474-0.53-2.207-0.833l0.975,0.679l1.039,0.608  c0.357,0.182,0.722,0.356,1.093,0.518c0.382,0.135,0.753,0.312,1.153,0.409c0.393,0.123,0.798,0.208,1.212,0.269  c0.412,0.068,0.837,0.095,1.263,0.095c0.429,0.005,0.857-0.053,1.286-0.132c0.424-0.098,0.846-0.217,1.25-0.393l0.406-0.187  c0,0,2.582-1.344,4.089-1.344c0,0,1.596-0.097,4.083,1.344l0.409,0.188c0.405,0.176,0.828,0.295,1.252,0.394  c0.429,0.078,0.857,0.137,1.286,0.131c0.426-0.001,0.851-0.026,1.263-0.095c0.415-0.06,0.819-0.146,1.214-0.269  c0.399-0.098,0.771-0.274,1.151-0.409c0.373-0.161,0.736-0.337,1.094-0.518l1.034-0.607l0.979-0.682  c-0.735,0.303-1.469,0.585-2.207,0.831l-1.117,0.315c-0.378,0.068-0.746,0.18-1.124,0.21c-0.375,0.062-0.746,0.097-1.117,0.104  c-0.37,0.016-0.738-0.009-1.096-0.054c-0.359-0.045-0.706-0.121-1.048-0.215c-0.334-0.112-0.662-0.235-0.969-0.402  c-0.613-0.331-1.156-0.775-1.635-1.293c-0.475-0.52-0.875-1.122-1.209-1.767s-0.629-1.322-0.852-2.028  c-0.114-0.353-0.211-0.711-0.299-1.07c-0.084-0.353-0.079-0.728-0.125-1.047c0,0,0.065-1.891,0.582-2.79  c0.328-0.657,1.006-1.814,1.934-2.392c1.586-0.984,0.697-2.746,0.697-2.746h-0.021c-4.695-2.809-8.303,0-8.303,0h-0.018h0.004  c0,0-0.89,1.762,0.697,2.746c0.927,0.576,1.604,1.733,1.933,2.39L48.551,77.493z"></path></svg></g><path fill="#5e24c3" fill-rule="nonzero" d="M2.62 16.97L0.22 16.97Q0.02 16.97 0.02 16.80L0.02 16.80L0 0.46Q0 0.26 0.19 0.26L0.19 0.26L2.35 0.26L6.41 9.72L6.29 0.46Q6.29 0.26 6.50 0.26L6.50 0.26L8.88 0.26Q9.02 0.26 9.02 0.46L9.02 0.46L9.05 16.82Q9.05 16.97 8.93 16.97L8.93 16.97L6.82 16.97L2.66 8.14L2.83 16.78Q2.83 16.97 2.62 16.97L2.62 16.97ZM18.98 16.97L11.23 16.97Q11.14 16.97 11.14 16.85L11.14 16.85L11.16 0.36Q11.16 0.26 11.26 0.26L11.26 0.26L18.96 0.26Q19.06 0.26 19.06 0.38L19.06 0.38L19.06 3.07Q19.06 3.17 18.96 3.17L18.96 3.17L14.04 3.17L14.04 6.91L18.96 6.91Q19.06 6.91 19.06 7.01L19.06 7.01L19.08 9.72Q19.08 9.82 18.98 9.82L18.98 9.82L14.04 9.82L14.04 14.02L18.98 14.02Q19.08 14.02 19.08 14.14L19.08 14.14L19.08 16.87Q19.08 16.97 18.98 16.97L18.98 16.97ZM24.02 16.97L21.31 16.97Q21.22 16.97 21.22 16.85L21.22 16.85L21.26 0.38Q21.26 0.26 21.36 0.26L21.36 0.26L24.05 0.26Q24.14 0.26 24.14 0.38L24.14 0.38L24.14 6.07L27.91 0.36Q27.98 0.26 28.08 0.26L28.08 0.26L30.84 0.26Q30.94 0.26 30.89 0.36L30.89 0.36L26.74 6.98L31.39 16.87Q31.44 16.97 31.27 16.97L31.27 16.97L28.34 16.97Q28.22 16.97 28.20 16.87L28.20 16.87L24.96 9.82L24.12 11.14L24.12 16.85Q24.12 16.97 24.02 16.97L24.02 16.97ZM35.95 17.21L35.95 17.21Q34.66 17.21 33.59 16.55Q32.52 15.89 31.87 14.80Q31.22 13.70 31.22 12.38L31.22 12.38L31.25 4.78Q31.25 3.46 31.88 2.38Q32.52 1.30 33.60 0.65Q34.68 0 35.95 0L35.95 0Q37.25 0 38.30 0.65Q39.36 1.30 40.00 2.38Q40.63 3.46 40.63 4.78L40.63 4.78L40.66 12.38Q40.66 13.70 40.02 14.80Q39.38 15.89 38.32 16.55Q37.25 17.21 35.95 17.21ZM35.95 14.30L35.95 14.30Q36.67 14.30 37.21 13.72Q37.75 13.13 37.75 12.38L37.75 12.38L37.73 4.78Q37.73 3.98 37.22 3.43Q36.72 2.88 35.95 2.88L35.95 2.88Q35.21 2.88 34.68 3.42Q34.15 3.96 34.15 4.78L34.15 4.78L34.15 12.38Q34.15 13.18 34.68 13.74Q35.21 14.30 35.95 14.30ZM48.84 16.97L46.13 16.97Q46.03 16.97 46.03 16.85L46.03 16.85L46.08 0.36Q46.08 0.26 46.18 0.26L46.18 0.26L49.10 0.26Q49.20 0.26 49.27 0.36L49.27 0.36L51.46 3.53L53.64 0.36Q53.71 0.26 53.81 0.26L53.81 0.26L56.76 0.26Q56.86 0.26 56.86 0.36L56.86 0.36L56.90 16.85Q56.90 16.97 56.81 16.97L56.81 16.97L54.10 16.97Q54 16.97 54 16.85L54 16.85L53.98 4.61L51.46 8.26L48.96 4.61L48.94 16.85Q48.94 16.97 48.84 16.97L48.84 16.97ZM63.34 17.21L63.34 17.21Q62.06 17.21 60.98 16.55Q59.90 15.89 59.27 14.78Q58.63 13.68 58.63 12.36L58.63 12.36L58.68 0.36Q58.68 0.26 58.78 0.26L58.78 0.26L61.46 0.26Q61.56 0.26 61.56 0.36L61.56 0.36L61.56 12.36Q61.56 13.18 62.08 13.74Q62.59 14.30 63.34 14.30L63.34 14.30Q64.10 14.30 64.62 13.74Q65.14 13.18 65.14 12.36L65.14 12.36L65.14 0.36Q65.14 0.26 65.23 0.26L65.23 0.26L67.92 0.26Q68.02 0.26 68.02 0.36L68.02 0.36L68.06 12.36Q68.06 13.70 67.43 14.81Q66.79 15.91 65.72 16.56Q64.66 17.21 63.34 17.21ZM74.04 17.21L74.04 17.21Q72.74 17.21 71.68 16.55Q70.61 15.89 69.97 14.80Q69.34 13.70 69.34 12.38L69.34 12.38L69.34 11.28Q69.34 11.16 69.46 11.16L69.46 11.16L72.14 11.16Q72.24 11.16 72.24 11.28L72.24 11.28L72.24 12.38Q72.24 13.18 72.77 13.74Q73.30 14.30 74.04 14.30L74.04 14.30Q74.78 14.30 75.31 13.73Q75.84 13.15 75.84 12.38L75.84 12.38Q75.84 11.50 74.69 10.85L74.69 10.85Q74.30 10.63 73.49 10.18Q72.67 9.72 71.95 9.31L71.95 9.31Q70.63 8.54 70.00 7.38Q69.36 6.22 69.36 4.75L69.36 4.75Q69.36 3.41 70.01 2.34Q70.66 1.27 71.72 0.65Q72.79 0.02 74.04 0.02L74.04 0.02Q75.31 0.02 76.38 0.66Q77.45 1.30 78.08 2.36Q78.72 3.43 78.72 4.75L78.72 4.75L78.72 6.72Q78.72 6.82 78.62 6.82L78.62 6.82L75.94 6.82Q75.84 6.82 75.84 6.72L75.84 6.72L75.82 4.75Q75.82 3.91 75.29 3.38Q74.76 2.86 74.04 2.86L74.04 2.86Q73.30 2.86 72.77 3.42Q72.24 3.98 72.24 4.75L72.24 4.75Q72.24 5.54 72.58 6.07Q72.91 6.60 73.80 7.08L73.80 7.08Q73.92 7.15 74.27 7.33Q74.62 7.51 75.02 7.74Q75.43 7.97 75.76 8.14Q76.08 8.30 76.15 8.35L76.15 8.35Q77.35 9.02 78.05 10.00Q78.74 10.97 78.74 12.38L78.74 12.38Q78.74 13.75 78.11 14.84Q77.47 15.94 76.40 16.57Q75.34 17.21 74.04 17.21ZM83.26 16.97L80.54 16.97Q80.42 16.97 80.42 16.85L80.42 16.85L80.45 0.36Q80.45 0.26 80.54 0.26L80.54 0.26L83.23 0.26Q83.33 0.26 83.33 0.36L83.33 0.36L83.35 16.85Q83.35 16.97 83.26 16.97L83.26 16.97ZM89.88 17.21L89.88 17.21Q88.56 17.21 87.49 16.55Q86.42 15.89 85.80 14.78Q85.18 13.68 85.18 12.31L85.18 12.31L85.20 4.82Q85.20 3.50 85.81 2.41Q86.42 1.32 87.49 0.66Q88.56 0 89.88 0L89.88 0Q91.20 0 92.26 0.65Q93.31 1.30 93.94 2.39Q94.56 3.48 94.56 4.82L94.56 4.82L94.56 5.93Q94.56 6.02 94.46 6.02L94.46 6.02L91.78 6.02Q91.68 6.02 91.68 5.93L91.68 5.93L91.68 4.82Q91.68 4.03 91.16 3.46Q90.65 2.88 89.88 2.88L89.88 2.88Q89.02 2.88 88.56 3.47Q88.10 4.06 88.10 4.82L88.10 4.82L88.10 12.31Q88.10 13.20 88.62 13.75Q89.14 14.30 89.88 14.30L89.88 14.30Q90.65 14.30 91.16 13.69Q91.68 13.08 91.68 12.31L91.68 12.31L91.68 11.21Q91.68 11.11 91.78 11.11L91.78 11.11L94.49 11.11Q94.58 11.11 94.58 11.21L94.58 11.21L94.58 12.31Q94.58 13.68 93.95 14.78Q93.31 15.89 92.26 16.55Q91.20 17.21 89.88 17.21Z" transform="translate(0, 52)"></path></svg>